<svg width="14" height="14" viewBox="0 0 14 14" fill="none" xmlns="http://www.w3.org/2000/svg">
<path d="M13.3638 2.05026L8.41409 7L13.3638 11.9497C13.7528 12.3387 13.7528 12.9751 13.3638 13.364C12.9749 13.7529 12.3385 13.7529 11.9496 13.364L6.99988 8.41422L2.05013 13.364C1.66122 13.7529 1.02483 13.7529 0.63592 13.364C0.247011 12.9751 0.247011 12.3387 0.63592 11.9497L5.58567 7L0.63592 2.05026C0.247011 1.66135 0.247011 1.02495 0.63592 0.636042C1.02483 0.247133 1.66122 0.247133 2.05013 0.636042L6.99988 5.58579L11.9496 0.636042C12.3385 0.247133 12.9749 0.247133 13.3638 0.636042C13.7528 1.02495 13.7528 1.66135 13.3638 2.05026Z" fill="#1A130D"/>
</svg>
