<svg width="18" height="17" viewBox="0 0 18 17" fill="none" xmlns="http://www.w3.org/2000/svg">
<path d="M7.68909 16.7957L11.1947 3.77051H12.329L8.4624 16.7957H7.68909Z" fill="#FFF3E0"/>
<path d="M13.3847 16.2162V14.8541L17.2267 12.0187L13.3601 9.18316L13.3847 7.9668L18 11.2311V12.9517L13.3847 16.2162Z" fill="#FFF3E0"/>
<path d="M5.60229 16.1439V14.7819L1.76025 11.9464L5.62683 9.11089L5.60229 7.89453L0.98698 11.1588V12.8794L5.60229 16.1439Z" fill="#FFF3E0"/>
<path d="M13.526 4.83541C12.9868 5.37464 11.0096 5.73412 11.0096 5.73412C11.0096 5.73412 10.1109 3.57721 10.2906 2.85824C10.4704 2.13928 11.0096 1.60005 11.0096 1.60005C11.9315 0.625119 12.6647 0.407707 14.0652 0.162109C14.3268 2.03095 14.0652 4.29618 13.526 4.83541Z" fill="#FFF3E0"/>
</svg>
