<svg width="74" height="74" viewBox="0 0 74 74" fill="none" xmlns="http://www.w3.org/2000/svg">
<rect width="74" height="74" rx="37" transform="matrix(-1 0 0 1 74 0)" fill="#1A130D"/>
<path d="M52.4751 35.9393C53.0609 36.5251 53.0609 37.4749 52.4751 38.0607L42.9292 47.6066C42.3434 48.1924 41.3937 48.1924 40.8079 47.6066C40.2221 47.0208 40.2221 46.0711 40.8079 45.4853L49.2932 37L40.8079 28.5147C40.2221 27.9289 40.2221 26.9792 40.8079 26.3934C41.3937 25.8076 42.3434 25.8076 42.9292 26.3934L52.4751 35.9393ZM22.5859 37L22.5859 35.5L51.4145 35.5L51.4145 37L51.4145 38.5L22.5859 38.5L22.5859 37Z" fill="#FFF3E0"/>
</svg>
