<svg width="19" height="30" viewBox="0 0 19 30" fill="none" xmlns="http://www.w3.org/2000/svg">
<path d="M8.73 18.545V25.775C8.73 26.0522 8.6199 26.318 8.4239 26.5139C8.228 26.7099 7.9622 26.82 7.685 26.82C7.4079 26.82 7.1421 26.7099 6.9461 26.5139C6.7501 26.318 6.64 26.0522 6.64 25.775V18.555C6.931 18.7675 7.2798 18.8861 7.64 18.895C8.0326 18.9062 8.4173 18.7827 8.73 18.545ZM17.63 16.455C17.3648 16.455 17.1104 16.5604 16.9229 16.7479C16.7354 16.9354 16.63 17.1898 16.63 17.455V18.715C16.63 18.9922 16.7401 19.258 16.9361 19.4539C17.132 19.6499 17.3978 19.76 17.675 19.76C17.9522 19.76 18.218 19.6499 18.4139 19.4539C18.6099 19.258 18.72 18.9922 18.72 18.715V17.505C18.7278 17.3616 18.7046 17.2182 18.652 17.0846C18.5994 16.951 18.5187 16.8302 18.4152 16.7306C18.3118 16.631 18.1881 16.5548 18.0527 16.5072C17.9172 16.4597 17.773 16.4419 17.63 16.455ZM4.37 21.285C4.01017 21.2742 3.66183 21.1558 3.37 20.945V28.195C3.37 28.4735 3.48062 28.7406 3.67754 28.9375C3.87445 29.1344 4.14152 29.245 4.42 29.245C4.69848 29.245 4.96555 29.1344 5.16246 28.9375C5.35938 28.7406 5.47 28.4735 5.47 28.195V20.995C5.14345 21.2061 4.75816 21.3077 4.37 21.285ZM14.37 14.285C14.2345 14.2782 14.0991 14.2991 13.9719 14.3463C13.8448 14.3935 13.7286 14.4661 13.6303 14.5596C13.5321 14.6532 13.454 14.7657 13.4006 14.8904C13.3473 15.0151 13.3198 15.1494 13.32 15.285V20.855C13.32 21.1335 13.4306 21.4006 13.6275 21.5975C13.8245 21.7944 14.0915 21.905 14.37 21.905C14.6485 21.905 14.9156 21.7944 15.1125 21.5975C15.3094 21.4006 15.42 21.1335 15.42 20.855V15.355C15.428 15.2107 15.4046 15.0664 15.3514 14.932C15.2982 14.7976 15.2166 14.6763 15.112 14.5765C15.0074 14.4767 14.8825 14.4007 14.7458 14.3539C14.6091 14.307 14.4638 14.2903 14.32 14.305L14.37 14.285ZM11.05 16.425C10.6733 16.4224 10.3067 16.3037 10 16.085V23.355C10 23.6335 10.1106 23.9006 10.3075 24.0975C10.5045 24.2944 10.7715 24.405 11.05 24.405C11.3285 24.405 11.5955 24.2944 11.7925 24.0975C11.9894 23.9006 12.1 23.6335 12.1 23.355V16.095C11.7828 16.3313 11.3955 16.4545 11 16.445L11.05 16.425ZM2.1 21.995V1.685C2.09737 1.43743 1.99717 1.20091 1.82117 1.02678C1.64517 0.852655 1.40758 0.754995 1.16 0.755005H0.94C0.69242 0.754995 0.45483 0.852655 0.27883 1.02678C0.10283 1.20091 0.00263 1.43743 0 1.685V21.995C0 22.2443 0.09904 22.4834 0.27532 22.6597C0.4516 22.836 0.6907 22.935 0.94 22.935H1.16C1.40931 22.935 1.6484 22.836 1.82468 22.6597C2.00097 22.4834 2.1 22.2443 2.1 21.995ZM4.48 20.515H4.26C4.0107 20.515 3.7716 20.416 3.59532 20.2397C3.41904 20.0634 3.32 19.8243 3.32 19.575V4.105C3.32264 3.85744 3.42283 3.6209 3.59883 3.44678C3.77483 3.27266 4.01242 3.17499 4.26 3.175H4.48C4.72758 3.17499 4.96517 3.27266 5.14117 3.44678C5.31717 3.6209 5.41737 3.85744 5.42 4.105V19.595C5.42 19.8443 5.32096 20.0834 5.14468 20.2597C4.9684 20.436 4.7293 20.535 4.48 20.535V20.515ZM7.79 18.135H7.56C7.3134 18.135 7.0768 18.037 6.9024 17.8626C6.728 17.6882 6.63 17.4517 6.63 17.205V6.505C6.6287 6.38203 6.6518 6.26003 6.6979 6.14604C6.744 6.03205 6.8123 5.92835 6.8988 5.84093C6.9853 5.75351 7.0883 5.6841 7.2018 5.63674C7.3153 5.58939 7.437 5.56499 7.56 5.565H7.79C8.0376 5.56764 8.2741 5.66783 8.4482 5.84383C8.6224 6.01983 8.72 6.25742 8.72 6.505V17.205C8.72 17.4517 8.622 17.6882 8.4476 17.8626C8.2732 18.037 8.0367 18.135 7.79 18.135ZM11.1 15.685H10.89C10.6424 15.685 10.4048 15.5874 10.2288 15.4132C10.0528 15.2391 9.9526 15.0026 9.95 14.755V8.995C9.9418 8.8666 9.96 8.73791 10.0036 8.61681C10.0471 8.49581 10.1151 8.3849 10.2032 8.2912C10.2913 8.1974 10.3977 8.12281 10.5159 8.07181C10.634 8.02091 10.7613 7.9947 10.89 7.995H11.11C11.3593 7.995 11.5984 8.094 11.7747 8.2703C11.951 8.4466 12.05 8.68571 12.05 8.93501V14.735C12.0513 14.8593 12.028 14.9826 11.9813 15.0978C11.9347 15.213 11.8657 15.3178 11.7782 15.4062C11.6908 15.4945 11.5868 15.5646 11.472 15.6125C11.3573 15.6604 11.2343 15.685 11.11 15.685H11.1ZM14.42 13.535H14.2C13.9507 13.535 13.7116 13.436 13.5353 13.2597C13.359 13.0834 13.26 12.8443 13.26 12.595V11.105C13.2626 10.8574 13.3628 10.6209 13.5388 10.4468C13.7148 10.2726 13.9524 10.175 14.2 10.175H14.42C14.6676 10.175 14.9052 10.2726 15.0812 10.4468C15.2572 10.6209 15.3574 10.8574 15.36 11.105V12.595C15.36 12.8426 15.2624 13.0802 15.0882 13.2562C14.9141 13.4322 14.6776 13.5324 14.43 13.535H14.42Z" fill="#1A130D"/>
</svg>
