<svg width="16" height="18" viewBox="0 0 16 18" fill="none" xmlns="http://www.w3.org/2000/svg">
<path d="M12.6 2.82C11.9166 2.03953 11.5399 1.0374 11.54 0H8.45003V12.4C8.4267 13.0712 8.14355 13.7071 7.66034 14.1735C7.17713 14.6399 6.53163 14.9004 5.86003 14.9C4.44003 14.9 3.26003 13.74 3.26003 12.3C3.26003 10.58 4.92003 9.29 6.63003 9.82V6.66C3.18003 6.2 0.160034 8.88 0.160034 12.3C0.160034 15.63 2.92003 18 5.85003 18C8.99004 18 11.54 15.45 11.54 12.3V6.01C12.793 6.90985 14.2974 7.39265 15.84 7.39V4.3C15.84 4.3 13.96 4.39 12.6 2.82Z" fill="#FFF3E0"/>
</svg>
